<svg width="1000" height="742" viewBox="0 0 1592 742" fill="none" xmlns="http://www.w3.org/2000/svg">
<path d="M71.0522 8C71.0522 12.4183 74.6339 16 79.0522 16C83.4705 16 87.0522 12.4183 87.0522 8C87.0522 3.58172 83.4705 0 79.0522 0C74.6339 0 71.0522 3.58172 71.0522 8ZM375.462 740.349L375.466 738.849L375.462 740.349ZM1280.1 202.496L1280.27 201.005L1280.1 202.496ZM1533.36 692.54L1549.83 687.173L1536.95 675.594L1533.36 692.54ZM77.6659 7.42697C77.0483 8.92119 76.4313 10.4246 75.8152 11.9369L78.5935 13.0687C79.2077 11.5611 79.8227 10.0625 80.4384 8.57303L77.6659 7.42697ZM72.1298 21.1173C70.9053 24.2125 69.6853 27.3422 68.4706 30.5052L71.2711 31.5807C72.4823 28.4271 73.6987 25.3067 74.9194 22.2209L72.1298 21.1173ZM64.9904 39.6986C63.8386 42.7858 62.6925 45.9023 61.553 49.0469L64.3736 50.0689C65.5098 46.9332 66.6526 43.8256 67.8012 40.7473L64.9904 39.6986ZM58.1902 58.4655C57.1055 61.549 56.0277 64.6575 54.9578 67.79L57.7967 68.7597C58.8637 65.6358 59.9385 62.5359 61.0202 59.461L58.1902 58.4655ZM51.7719 77.2585C50.7347 80.3884 49.7058 83.5405 48.6858 86.7138L51.5419 87.6318C52.5591 84.4671 53.5852 81.3235 54.6196 78.2022L51.7719 77.2585ZM45.6981 96.1547C44.7114 99.3216 43.7342 102.508 42.7672 105.713L45.6394 106.58C46.6038 103.383 47.5783 100.205 48.5623 97.047L45.6981 96.1547ZM39.944 115.225C39.021 118.386 38.1083 121.565 37.2067 124.759L40.0939 125.574C40.993 122.389 41.9032 119.219 42.8238 116.066L39.944 115.225ZM34.5355 134.39C33.6693 137.568 32.8145 140.762 31.9716 143.969L34.8731 144.731C35.7136 141.533 36.5661 138.348 37.4299 135.178L34.5355 134.39ZM29.4921 153.582C28.6778 156.8 27.8761 160.03 27.0875 163.272L30.0025 163.981C30.7889 160.748 31.5884 157.527 32.4004 154.318L29.4921 153.582ZM24.7874 172.924C24.0366 176.141 23.2991 179.369 22.5755 182.607L25.5033 183.261C26.2248 180.032 26.9602 176.814 27.7089 173.606L24.7874 172.924ZM20.4472 192.35C19.7574 195.582 19.082 198.823 18.4214 202.072L21.3613 202.67C22.0199 199.43 22.6934 196.198 23.3811 192.976L20.4472 192.35ZM16.4901 211.818C15.8615 215.074 15.2483 218.338 14.6511 221.608L17.6023 222.147C18.1977 218.887 18.809 215.633 19.4357 212.386L16.4901 211.818ZM12.9152 231.396C12.3539 234.658 11.8089 237.926 11.2809 241.2L14.2426 241.677C14.7689 238.415 15.3122 235.157 15.8717 231.905L12.9152 231.396ZM9.7479 251.033C9.25496 254.311 8.77942 257.593 8.32186 260.878L11.2932 261.292C11.7492 258.017 12.2232 254.746 12.7145 251.48L9.7479 251.033ZM7.00496 270.734C6.5843 274.022 6.18215 277.314 5.79906 280.607L8.77897 280.954C9.16072 277.672 9.56149 274.392 9.98071 271.115L7.00496 270.734ZM4.70706 290.497C4.36236 293.797 4.03734 297.098 3.73255 300.399L6.71984 300.675C7.02352 297.386 7.34736 294.097 7.69082 290.809L4.70706 290.497ZM2.87945 310.305C2.61521 313.613 2.37186 316.921 2.14995 320.228L5.14322 320.428C5.36426 317.134 5.60669 313.839 5.86992 310.544L2.87945 310.305ZM1.54789 330.168C1.36913 333.479 1.21251 336.79 1.07858 340.097L4.07612 340.219C4.2095 336.925 4.36549 333.628 4.54353 330.329L1.54789 330.168ZM0.744788 350.038C0.656336 353.363 0.591494 356.685 0.550852 360.003L3.55063 360.04C3.59109 356.736 3.65565 353.429 3.74373 350.118L0.744788 350.038ZM0.502111 369.944C0.510482 373.263 0.543794 376.577 0.602643 379.885L3.60217 379.832C3.5436 376.539 3.51043 373.24 3.5021 369.936L0.502111 369.944ZM0.85857 389.858C0.970156 393.176 1.10822 396.487 1.27337 399.791L4.26963 399.641C4.10531 396.354 3.96792 393.059 3.85688 389.757L0.85857 389.858ZM1.85304 409.714C2.07575 413.041 2.32682 416.359 2.60687 419.668L5.59618 419.415C5.31764 416.124 5.0679 412.823 4.84633 409.514L1.85304 409.714ZM3.53459 429.567C3.87466 432.871 4.2446 436.165 4.64504 439.447L7.62296 439.084C7.22484 435.82 6.857 432.545 6.51882 429.26L3.53459 429.567ZM5.95095 449.349C6.41775 452.638 6.91626 455.914 7.44713 459.178L10.4082 458.696C9.88064 455.453 9.38518 452.196 8.92118 448.927L5.95095 449.349ZM9.14689 468.98C9.75185 472.262 10.3908 475.53 11.0643 478.783L14.002 478.175C13.333 474.944 12.6982 471.697 12.0972 468.436L9.14689 468.98ZM13.1897 488.495C13.938 491.737 14.7222 494.963 15.5429 498.173L18.4494 497.429C17.6346 494.243 16.856 491.04 16.1128 487.82L13.1897 488.495ZM18.1346 507.816C19.036 511.013 19.9751 514.191 20.9527 517.35L23.8186 516.463C22.8486 513.328 21.9166 510.175 21.0219 507.002L18.1346 507.816ZM24.0255 526.838C25.0945 529.996 26.2037 533.132 27.3538 536.248L30.1681 535.208C29.0276 532.119 27.9275 529.008 26.8671 525.876L24.0255 526.838ZM30.9274 545.526C32.1694 548.62 33.4537 551.691 34.781 554.737L37.5313 553.539C36.2158 550.52 34.9428 547.476 33.7115 544.409L30.9274 545.526ZM38.902 563.822C40.3194 566.826 41.7808 569.804 43.287 572.756L45.9592 571.392C44.4673 568.468 43.0195 565.518 41.6151 562.542L38.902 563.822ZM47.9664 581.578C49.5722 584.492 51.224 587.378 52.9226 590.235L55.5013 588.702C53.8196 585.873 52.184 583.015 50.5938 580.13L47.9664 581.578ZM58.1593 598.719C59.9517 601.517 61.7917 604.286 63.68 607.023L66.1494 605.319C64.2807 602.61 62.4596 599.871 60.6854 597.101L58.1593 598.719ZM69.4905 615.142C71.4701 617.808 73.4984 620.443 75.5762 623.045L77.9205 621.173C75.8648 618.598 73.858 615.992 71.8993 613.353L69.4905 615.142ZM81.9293 630.717C84.0965 633.241 86.3135 635.732 88.5811 638.188L90.7854 636.153C88.5424 633.723 86.3493 631.259 84.2054 628.762L81.9293 630.717ZM95.4679 645.383C97.798 647.731 100.178 650.045 102.608 652.323L104.66 650.135C102.256 647.881 99.9022 645.592 97.5974 643.27L95.4679 645.383ZM110.05 659.051C112.533 661.217 115.066 663.347 117.649 665.441L119.538 663.111C116.983 661.039 114.478 658.932 112.021 656.79L110.05 659.051ZM125.493 671.574C128.157 673.582 130.87 675.554 133.634 677.489L135.355 675.031C132.619 673.117 129.934 671.165 127.298 669.178L125.493 671.574ZM141.836 683.023C144.599 684.819 147.409 686.58 150.268 688.305L151.818 685.736C148.988 684.029 146.206 682.286 143.471 680.508L141.836 683.023ZM158.988 693.369C161.843 694.965 164.744 696.525 167.69 698.051L169.069 695.386C166.151 693.876 163.279 692.33 160.452 690.751L158.988 693.369ZM176.575 702.475C179.582 703.915 182.635 705.32 185.733 706.688L186.945 703.944C183.875 702.588 180.85 701.196 177.871 699.77L176.575 702.475ZM194.869 710.563C197.893 711.794 200.959 712.992 204.067 714.156L205.119 711.347C202.037 710.192 198.998 709.005 196 707.784L194.869 710.563ZM213.518 717.547C216.662 718.627 219.848 719.674 223.076 720.686L223.974 717.824C220.772 716.819 217.611 715.781 214.492 714.71L213.518 717.547ZM232.453 723.499C235.617 724.406 238.819 725.281 242.061 726.124L242.816 723.22C239.598 722.383 236.419 721.515 233.279 720.615L232.453 723.499ZM251.902 728.557C255.073 729.301 258.281 730.015 261.524 730.7L262.143 727.764C258.922 727.085 255.737 726.375 252.587 725.636L251.902 728.557ZM271.172 732.627C274.423 733.24 277.709 733.824 281.031 734.379L281.525 731.419C278.224 730.869 274.958 730.288 271.728 729.679L271.172 732.627ZM291.102 735.952C294.286 736.417 297.502 736.854 300.75 737.265L301.127 734.289C297.898 733.881 294.7 733.445 291.535 732.984L291.102 735.952ZM310.532 738.412C313.825 738.767 317.148 739.096 320.504 739.397L320.772 736.409C317.434 736.109 314.128 735.783 310.854 735.429L310.532 738.412ZM330.667 740.219C333.883 740.451 337.128 740.659 340.401 740.842L340.569 737.847C337.311 737.665 334.083 737.458 330.883 737.227L330.667 740.219ZM350.205 741.313C353.501 741.446 356.825 741.555 360.178 741.639L360.253 738.64C356.915 738.556 353.606 738.448 350.326 738.316L350.205 741.313ZM370.321 741.816C372.026 741.833 373.738 741.844 375.458 741.849L375.466 738.849C373.754 738.844 372.049 738.833 370.352 738.816L370.321 741.816ZM375.458 741.849C377.174 741.853 378.884 741.853 380.59 741.848L380.581 738.848C378.881 738.853 377.176 738.853 375.466 738.849L375.458 741.849ZM390.753 741.762C394.119 741.714 397.463 741.648 400.785 741.562L400.708 738.563C397.397 738.648 394.065 738.715 390.711 738.762L390.753 741.762ZM410.685 741.251C413.963 741.129 417.22 740.988 420.455 740.829L420.308 737.833C417.085 737.991 413.84 738.131 410.573 738.253L410.685 741.251ZM430.126 740.297C433.546 740.088 436.941 739.858 440.313 739.608L440.091 736.616C436.733 736.865 433.35 737.094 429.943 737.302L430.126 740.297ZM450.355 738.798C453.678 738.507 456.978 738.197 460.254 737.867L459.953 734.882C456.69 735.211 453.404 735.52 450.094 735.809L450.355 738.798ZM470.012 736.818C473.242 736.448 476.448 736.06 479.631 735.652L479.249 732.676C476.08 733.082 472.887 733.469 469.671 733.837L470.012 736.818ZM489.708 734.285C493.053 733.806 496.372 733.306 499.665 732.785L499.196 729.822C495.917 730.341 492.613 730.839 489.283 731.315L489.708 734.285ZM509.468 731.157C512.71 730.594 515.927 730.01 519.119 729.405L518.561 726.457C515.384 727.059 512.182 727.641 508.954 728.202L509.468 731.157ZM528.722 727.509C532.059 726.823 535.367 726.115 538.649 725.384L537.997 722.455C534.731 723.183 531.439 723.888 528.118 724.57L528.722 727.509ZM548.412 723.124C551.639 722.349 554.839 721.552 558.013 720.733L557.263 717.828C554.106 718.643 550.922 719.436 547.711 720.207L548.412 723.124ZM567.455 718.213C570.693 717.32 573.903 716.403 577.086 715.465L576.237 712.587C573.072 713.521 569.878 714.432 566.657 715.321L567.455 718.213ZM586.714 712.531C589.895 711.53 593.048 710.507 596.173 709.461L595.221 706.616C592.113 707.656 588.978 708.674 585.814 709.669L586.714 712.531ZM605.465 706.259C608.597 705.148 611.701 704.014 614.776 702.859L613.721 700.05C610.663 701.2 607.576 702.327 604.462 703.432L605.465 706.259ZM624.174 699.225C627.277 697.991 630.351 696.734 633.397 695.455L632.235 692.689C629.207 693.961 626.151 695.21 623.065 696.437L624.174 699.225ZM642.449 691.552C645.482 690.21 648.487 688.846 651.463 687.459L650.196 684.74C647.238 686.118 644.251 687.474 641.235 688.809L642.449 691.552ZM660.541 683.122C663.537 681.654 666.504 680.164 669.443 678.652L668.07 675.985C665.149 677.488 662.199 678.969 659.221 680.428L660.541 683.122ZM678.173 674.053C681.101 672.474 683.999 670.873 686.87 669.252L685.394 666.64C682.541 668.252 679.659 669.843 676.749 671.412L678.173 674.053ZM695.554 664.232C698.42 662.537 701.257 660.822 704.066 659.086L702.489 656.534C699.696 658.259 696.876 659.965 694.027 661.649L695.554 664.232ZM712.41 653.817C715.217 652.007 717.995 650.176 720.746 648.325L719.072 645.836C716.337 647.676 713.574 649.496 710.783 651.296L712.41 653.817ZM728.987 642.666C731.706 640.76 734.397 638.834 737.062 636.891L735.294 634.467C732.645 636.4 729.968 638.314 727.265 640.209L728.987 642.666ZM744.98 631.001C747.652 628.976 750.295 626.933 752.913 624.871L751.056 622.515C748.453 624.565 745.824 626.597 743.168 628.611L744.98 631.001ZM760.686 618.635C763.251 616.539 765.79 614.426 768.304 612.297L766.365 610.007C763.864 612.125 761.338 614.227 758.787 616.312L760.686 618.635ZM775.831 605.81C778.341 603.609 780.825 601.393 783.285 599.162L781.27 596.94C778.822 599.16 776.35 601.365 773.854 603.554L775.831 605.81ZM790.593 592.425C793.006 590.164 795.394 587.89 797.761 585.602L795.675 583.446C793.32 585.723 790.943 587.986 788.542 590.236L790.593 592.425ZM804.888 578.605C807.243 576.256 809.576 573.895 811.888 571.522L809.739 569.429C807.437 571.792 805.115 574.142 802.77 576.48L804.888 578.605ZM818.758 564.368C821.04 561.958 823.302 559.537 825.543 557.106L823.337 555.073C821.105 557.494 818.853 559.905 816.58 562.305L818.758 564.368ZM832.252 549.731C834.469 547.263 836.666 544.785 838.844 542.299L836.588 540.322C834.417 542.799 832.228 545.268 830.02 547.726L832.252 549.731ZM845.327 534.814C847.494 532.282 849.643 529.742 851.775 527.196L849.474 525.27C847.35 527.808 845.208 530.34 843.048 532.863L845.327 534.814ZM858.119 519.538C860.217 516.979 862.299 514.414 864.365 511.844L862.027 509.964C859.967 512.527 857.891 515.084 855.799 517.635L858.119 519.538ZM870.565 504.061C872.626 501.452 874.671 498.839 876.702 496.223L874.333 494.383C872.306 496.993 870.266 499.6 868.211 502.202L870.565 504.061ZM882.755 488.366C884.768 485.734 886.767 483.101 888.754 480.466L886.359 478.66C884.375 481.289 882.38 483.918 880.372 486.544L882.755 488.366ZM894.731 472.491C896.712 469.832 898.681 467.174 900.64 464.516L898.225 462.736C896.269 465.39 894.303 468.045 892.325 470.699L894.731 472.491ZM906.488 456.546C908.455 453.854 910.412 451.164 912.36 448.477L909.932 446.716C907.985 449.4 906.03 452.087 904.066 454.776L906.488 456.546ZM918.181 440.427C920.113 437.748 922.038 435.073 923.956 432.403L921.52 430.652C919.602 433.321 917.679 435.995 915.748 438.672L918.181 440.427ZM929.761 424.314C931.704 421.604 933.621 418.93 935.554 416.234L933.116 414.486C931.197 417.162 929.252 419.876 927.323 422.566L929.761 424.314ZM941.32 408.2C943.257 405.504 945.19 402.817 947.121 400.14L944.688 398.385C942.756 401.064 940.821 403.752 938.883 406.45L941.32 408.2ZM952.954 392.078C954.897 389.402 956.838 386.737 958.778 384.085L956.358 382.314C954.414 384.969 952.471 387.637 950.526 390.316L952.954 392.078ZM964.649 376.105C966.629 373.427 968.61 370.764 970.594 368.117L968.193 366.318C966.205 368.971 964.22 371.639 962.237 374.321L964.649 376.105ZM976.551 360.224C978.554 357.591 980.56 354.976 982.57 352.379L980.198 350.543C978.182 353.147 976.171 355.769 974.163 358.408L976.551 360.224ZM988.705 344.534C990.756 341.939 992.812 339.364 994.876 336.812L992.543 334.925C990.472 337.487 988.408 340.071 986.351 342.674L988.705 344.534ZM1001.13 329.169C1003.26 326.605 1005.39 324.066 1007.54 321.552L1005.26 319.604C1003.1 322.129 1000.96 324.68 998.823 327.254L1001.13 329.169ZM1014.01 314.088C1016.19 311.608 1018.39 309.156 1020.6 306.732L1018.38 304.711C1016.16 307.148 1013.95 309.613 1011.76 312.106L1014.01 314.088ZM1027.36 299.449C1029.63 297.053 1031.91 294.687 1034.21 292.354L1032.08 290.248C1029.76 292.596 1027.46 294.976 1025.18 297.387L1027.36 299.449ZM1041.23 285.395C1043.61 283.086 1046.01 280.813 1048.43 278.577L1046.39 276.374C1043.96 278.627 1041.54 280.917 1039.14 283.242L1041.23 285.395ZM1055.75 271.982C1058.23 269.803 1060.74 267.663 1063.27 265.564L1061.35 263.255C1058.8 265.372 1056.28 267.53 1053.77 269.727L1055.75 271.982ZM1070.97 259.361C1073.57 257.336 1076.18 255.355 1078.83 253.418L1077.06 250.997C1074.39 252.953 1071.74 254.953 1069.13 256.997L1070.97 259.361ZM1086.89 247.715C1089.61 245.859 1092.36 244.05 1095.14 242.289L1093.53 239.755C1090.72 241.534 1087.95 243.362 1085.2 245.237L1086.89 247.715ZM1103.57 237.158C1106.4 235.505 1109.26 233.902 1112.15 232.351L1110.74 229.707C1107.81 231.276 1104.92 232.896 1102.06 234.568L1103.57 237.158ZM1120.94 227.855C1123.89 226.416 1126.88 225.03 1129.9 223.698L1128.69 220.953C1125.63 222.3 1122.61 223.703 1119.63 225.158L1120.94 227.855ZM1138.95 219.92C1142 218.714 1145.1 217.563 1148.23 216.468L1147.23 213.636C1144.07 214.744 1140.94 215.909 1137.85 217.129L1138.95 219.92ZM1157.6 213.396C1160.69 212.446 1163.83 211.551 1167.01 210.711L1166.24 207.811C1163.03 208.661 1159.85 209.567 1156.72 210.527L1157.6 213.396ZM1176.66 208.357C1179.84 207.646 1183.05 206.989 1186.31 206.388L1185.77 203.437C1182.47 204.046 1179.22 204.71 1176 205.43L1176.66 208.357ZM1195.94 204.789C1199.19 204.309 1202.48 203.884 1205.81 203.513L1205.48 200.531C1202.12 200.906 1198.79 201.336 1195.51 201.821L1195.94 204.789ZM1215.68 202.585C1218.87 202.339 1222.1 202.143 1225.37 201.996L1225.24 198.999C1221.94 199.147 1218.67 199.345 1215.45 199.594L1215.68 202.585ZM1235.29 201.71C1238.62 201.666 1241.98 201.672 1245.39 201.731L1245.44 198.731C1242 198.672 1238.61 198.666 1235.25 198.71L1235.29 201.71ZM1254.99 202.029C1258.23 202.174 1261.5 202.365 1264.81 202.602L1265.02 199.61C1261.69 199.371 1258.39 199.179 1255.13 199.032L1254.99 202.029ZM1274.84 203.455C1276.53 203.62 1278.23 203.798 1279.94 203.987L1280.27 201.005C1278.55 200.815 1276.83 200.636 1275.13 200.469L1274.84 203.455ZM1279.94 203.987C1281.65 204.177 1283.35 204.372 1285.04 204.574L1285.39 201.595C1283.69 201.392 1281.98 201.196 1280.27 201.005L1279.94 203.987ZM1295.09 205.858C1298.41 206.309 1301.69 206.785 1304.94 207.284L1305.39 204.319C1302.13 203.817 1298.83 203.339 1295.5 202.885L1295.09 205.858ZM1314.58 208.852C1317.95 209.432 1321.29 210.037 1324.59 210.669L1325.16 207.722C1321.84 207.087 1318.48 206.478 1315.09 205.896L1314.58 208.852ZM1334.43 212.648C1337.67 213.333 1340.87 214.043 1344.04 214.778L1344.71 211.856C1341.53 211.117 1338.31 210.402 1335.05 209.713L1334.43 212.648ZM1353.77 217.146C1357.05 217.983 1360.3 218.847 1363.5 219.739L1364.31 216.848C1361.08 215.951 1357.81 215.081 1354.51 214.239L1353.77 217.146ZM1372.99 222.493C1376.2 223.462 1379.36 224.46 1382.48 225.485L1383.42 222.634C1380.28 221.602 1377.09 220.598 1373.86 219.621L1372.99 222.493ZM1392.02 228.75C1395.16 229.867 1398.25 231.012 1401.29 232.185L1402.37 229.385C1399.3 228.203 1396.19 227.049 1393.03 225.924L1392.02 228.75ZM1410.54 235.885C1413.67 237.186 1416.74 238.516 1419.77 239.875L1421 237.138C1417.95 235.767 1414.84 234.426 1411.69 233.115L1410.54 235.885ZM1428.71 244.04C1431.75 245.508 1434.73 247.006 1437.67 248.534L1439.05 245.873C1436.09 244.331 1433.08 242.82 1430.02 241.339L1428.71 244.04ZM1446.46 253.287C1449.34 254.902 1452.17 256.546 1454.95 258.219L1456.5 255.649C1453.69 253.96 1450.84 252.3 1447.93 250.67L1446.46 253.287ZM1463.51 263.573C1466.31 265.388 1469.06 267.234 1471.75 269.109L1473.46 266.648C1470.75 264.754 1467.97 262.89 1465.15 261.056L1463.51 263.573ZM1479.81 274.938C1482.5 276.955 1485.13 279.001 1487.7 281.077L1489.59 278.742C1486.99 276.644 1484.33 274.576 1481.61 272.538L1479.81 274.938ZM1495.26 287.403C1497.81 289.615 1500.3 291.858 1502.73 294.129L1504.78 291.937C1502.32 289.641 1499.81 287.374 1497.23 285.137L1495.26 287.403ZM1509.84 301.026C1512.2 303.405 1514.5 305.812 1516.74 308.245L1518.95 306.214C1516.68 303.752 1514.36 301.318 1511.97 298.913L1509.84 301.026ZM1523.33 315.693C1525.5 318.23 1527.6 320.794 1529.64 323.382L1531.99 321.525C1529.93 318.907 1527.8 316.314 1525.62 313.747L1523.33 315.693ZM1535.66 331.333C1537.61 334.021 1539.5 336.733 1541.34 339.466L1543.83 337.796C1541.98 335.03 1540.06 332.287 1538.08 329.569L1535.66 331.333ZM1546.74 347.868C1548.48 350.693 1550.16 353.54 1551.78 356.406L1554.39 354.929C1552.75 352.031 1551.05 349.152 1549.29 346.294L1546.74 347.868ZM1556.53 365.198C1558.06 368.147 1559.52 371.115 1560.92 374.1L1563.64 372.822C1562.22 369.805 1560.74 366.804 1559.2 363.821L1556.53 365.198ZM1565.01 383.213C1566.31 386.269 1567.56 389.34 1568.74 392.424L1571.54 391.347C1570.34 388.23 1569.08 385.125 1567.77 382.036L1565.01 383.213ZM1572.16 401.799C1573.24 404.942 1574.27 408.096 1575.24 411.26L1578.11 410.38C1577.13 407.184 1576.09 403.997 1575 400.821L1572.16 401.799ZM1578 420.845C1578.87 424.056 1579.68 427.275 1580.44 430.498L1583.36 429.812C1582.59 426.557 1581.77 423.307 1580.9 420.063L1578 420.845ZM1582.56 440.245C1583.22 443.508 1583.82 446.773 1584.37 450.04L1587.33 449.541C1586.77 446.244 1586.17 442.947 1585.5 439.654L1582.56 440.245ZM1585.88 459.903C1586.33 463.201 1586.73 466.499 1587.08 469.793L1590.06 469.476C1589.71 466.152 1589.31 462.825 1588.85 459.496L1585.88 459.903ZM1587.99 479.731C1588.24 483.053 1588.45 486.369 1588.6 489.677L1591.6 489.534C1591.44 486.198 1591.24 482.853 1590.98 479.502L1587.99 479.731ZM1588.94 499.655C1589 502.988 1589.02 506.31 1588.99 509.618L1591.99 509.645C1592.02 506.309 1592 502.959 1591.94 499.598L1588.94 499.655ZM1588.76 519.605C1588.64 522.937 1588.47 526.253 1588.26 529.551L1591.25 529.742C1591.47 526.417 1591.63 523.074 1591.76 519.714L1588.76 519.605ZM1587.49 539.52C1587.19 542.84 1586.84 546.139 1586.46 549.412L1589.44 549.764C1589.82 546.464 1590.17 543.139 1590.48 539.791L1587.49 539.52ZM1585.15 559.339C1584.67 562.636 1584.15 565.903 1583.59 569.139L1586.54 569.65C1587.11 566.388 1587.63 563.094 1588.12 559.771L1585.15 559.339ZM1581.74 579.003C1581.08 582.275 1580.38 585.51 1579.65 588.705L1582.57 589.379C1583.31 586.157 1584.02 582.895 1584.68 579.595L1581.74 579.003ZM1577.26 598.439C1576.41 601.689 1575.53 604.89 1574.61 608.041L1577.49 608.881C1578.42 605.703 1579.31 602.473 1580.16 599.195L1577.26 598.439ZM1571.67 617.557C1570.63 620.777 1569.54 623.935 1568.43 627.027L1571.25 628.047C1572.38 624.924 1573.47 621.735 1574.53 618.485L1571.67 617.557ZM1564.91 636.271C1563.64 639.432 1562.34 642.511 1561.01 645.504L1563.75 646.723C1565.1 643.694 1566.41 640.581 1567.69 637.387L1564.91 636.271ZM1556.77 654.54C1555.28 657.567 1553.75 660.487 1552.19 663.295L1554.82 664.748C1556.4 661.898 1557.95 658.937 1559.46 655.87L1556.77 654.54ZM1547.15 671.862C1545.32 674.783 1543.46 677.547 1541.59 680.145L1544.02 681.901C1545.94 679.246 1547.83 676.428 1549.69 673.455L1547.15 671.862Z" fill="#CFCFCF"/>
</svg>
